<?xml version="1.0" encoding="UTF-8"?>
<svg id="logo" xmlns="http://www.w3.org/2000/svg" viewBox="0 0 512 256">
  <defs>
    <style>
      .cls-1 {
        fill: #fff;
      }
    </style>
  </defs>
  <g id="wt-glyph">
    <g id="green-transparent">
      <path class="cls-1" d="M270.76,98.09c-.01.08-.02.16-.03.24l-.04.32-.03.23c-.04.28-.09.55-.13.83-.05.27-.09.52-.14.75v.09s-.03.08-.03.08c0,.08-.03.16-.04.24l-.04.2-.04.19c-.01.08-.03.17-.05.26v.04s-.02.06-.02.06c-.04.2-.09.4-.13.6v.06s-.03.05-.03.05c-.03.16-.06.33-.11.49l-.02.1-.02.09c-.06.23-.11.46-.17.68l-.02.06v.06c-.05.13-.08.26-.11.39l-.02.07-.02.06c-.05.22-.11.43-.18.64-.03.12-.06.22-.09.31-.08.29-.16.57-.25.84v.04s-.02.03-.02.03c-.13.39-.25.78-.39,1.16-1.82,5.27-4.54,10.14-8.1,14.47-.98,1.19-2.02,2.34-3.1,3.42-.8.8-1.66,1.6-2.56,2.38l-.13.1c-.52.45-1.06.89-1.65,1.35l-.33.26c-5.64,4.33-12.29,7.35-19.23,8.75l-7.05,1.42.66,7.16c.03.39.07.77.12,1.15.17,1.59.43,3.18.77,4.73.06.3.13.64.21.97.24,1.01.52,2.05.83,3.09l.04.12c.1.32.2.65.31.96.5,1.52,1.08,3.02,1.72,4.47.13.3.27.6.41.9.11.24.23.48.35.72.13.28.26.55.4.82.06.12.12.24.19.35.12.23.24.46.36.68.04.08.08.15.12.22.15.29.32.58.48.87.16.28.33.56.49.83.11.18.22.37.34.55.15.26.32.52.49.78.15.24.31.47.46.71.18.27.36.53.55.8.13.19.26.37.4.56-7.59-1.77-14.35-5.65-19.68-10.98-7.47-7.46-12.09-17.78-12.09-29.17s4.62-21.71,12.09-29.17c7.46-7.47,17.78-12.09,29.17-12.09,9.46,0,18.17,3.18,25.13,8.56Z"/>
      <path id="leaf" class="cls-1" d="M301.91,109.99s-.05-.04-.08-.06c.01-.03.02-.06.03-.09-3.23-11.48-9.37-21.75-17.57-29.95-2.31-2.31-4.78-4.45-7.39-6.41-.25-.19-.5-.37-.75-.56-.18-.13-.36-.26-.54-.39.12.31.23.62.34.93.07.19.14.38.2.57,1.95,5.63,3,11.68,3,17.97,0,.39,0,.77-.01,1.15,0,.36-.02.72-.03,1.07-.02.46-.04.91-.08,1.36-.02.29-.04.58-.06.88-.03.37-.06.73-.1,1.09-.03.26-.05.52-.09.78-.04.37-.09.74-.14,1.11-.03.19-.05.38-.08.58-.05.34-.1.67-.16,1.01-.05.32-.11.64-.17.95-.03.2-.07.4-.12.6-.03.21-.08.41-.12.61-.06.28-.12.56-.18.84-.06.26-.11.52-.18.77-.08.34-.16.67-.25,1.01-.05.18-.09.37-.15.55-.08.3-.16.59-.24.89-.03.09-.05.17-.07.25-.11.36-.21.72-.33,1.08-.15.47-.3.93-.46,1.39-2.15,6.23-5.39,11.95-9.48,16.94-1.14,1.39-2.35,2.72-3.62,3.99-.96.96-1.96,1.88-2.98,2.77h0c-.8.69-1.61,1.35-2.45,1.99,0,0-.02.01-.03.02-6.51,4.99-14.18,8.56-22.52,10.25.03.33.06.65.1.97.15,1.35.37,2.66.64,3.97.06.27.11.53.18.79.21.89.44,1.76.7,2.62.09.29.18.59.28.88.42,1.29.91,2.55,1.45,3.77.1.24.21.47.32.71.11.23.21.45.32.67.11.23.23.46.35.69.03.06.05.11.08.16.12.23.24.46.37.69.01.03.03.06.05.08.14.26.28.52.43.78.14.24.28.48.42.72.09.16.2.33.3.49.12.2.24.4.37.59.14.22.28.44.43.66.14.21.28.42.43.63.17.25.35.49.53.74.18.24.36.49.55.73.13.18.27.35.41.52.12.15.24.31.37.46.14.18.29.35.43.52.17.21.35.41.52.61.18.21.37.42.56.63.03.03.06.06.08.09.18.2.37.39.55.58.03.03.06.06.08.08.19.2.39.4.59.6.21.21.43.43.65.64.18.18.37.35.55.52.2.18.4.36.6.54.14.13.29.25.43.38.1.09.2.18.31.26.19.17.39.33.59.49.23.19.46.37.69.55.02.02.04.03.06.05.23.18.47.37.71.54.18.13.36.27.54.39.15.12.31.23.47.34.25.18.5.35.76.52.4.27.8.52,1.21.77.2.12.41.25.61.37.21.12.41.24.62.36.62.36,1.26.7,1.9,1.02.21.11.43.21.64.32s.43.21.65.31c.66.31,1.32.59,2,.86.21.09.43.17.65.25.82.31,1.65.59,2.5.85.18.06.37.11.56.17.17.05.34.1.51.15.45.12.9.24,1.35.34.23.06.45.11.68.16.03,0,.06.01.09.02.22.05.45.1.68.14.24.05.49.09.73.14.24.04.49.09.73.12.22.04.44.07.66.1.04,0,.09.01.13.02.23.03.46.06.7.09.24.03.49.06.74.09.61.06,1.23.12,1.85.15.31.02.61.04.92.05.34.01.68.03,1.02.03.24,0,.47,0,.71,0s.47,0,.71,0c.06,0,.11,0,.16,0,2.57-1.94,5-4.05,7.28-6.33,8.34-8.34,14.54-18.8,17.73-30.51h0c1.57-5.77,2.41-11.84,2.41-18.11s-.88-12.63-2.52-18.52Z"/>
    </g>
    <g>
      <path class="cls-1" d="M91.01,177.05c-5.45,0-10.27-.9-14.47-2.71-4.2-1.81-7.47-4.54-9.81-8.21-2.34-3.66-3.51-8.32-3.51-13.97,0-4.68.79-8.68,2.37-11.99,1.58-3.31,3.79-6.02,6.64-8.13,2.85-2.11,6.17-3.74,9.96-4.89,3.79-1.15,7.9-1.87,12.33-2.18,4.78-.36,8.61-.79,11.49-1.3,2.88-.51,4.96-1.26,6.26-2.25s1.95-2.3,1.95-3.93v-.31c0-1.48-.4-2.72-1.18-3.74-.79-1.02-1.9-1.79-3.32-2.33-1.43-.53-3.13-.8-5.11-.8s-3.69.28-5.27.84c-1.58.56-2.89,1.4-3.93,2.52-1.04,1.12-1.74,2.55-2.1,4.28l-27.64-2.75c.81-4.78,2.8-9.13,5.95-13.05,3.15-3.92,7.52-7.05,13.09-9.39,5.57-2.34,12.35-3.51,20.35-3.51,6.06,0,11.54.71,16.45,2.14,4.91,1.43,9.11,3.41,12.6,5.96,3.49,2.55,6.16,5.51,8.02,8.89,1.86,3.39,2.79,7.04,2.79,10.96v58.48h-28.7v-12.06h-.61c-1.73,3.21-3.81,5.79-6.22,7.75-2.42,1.96-5.15,3.4-8.21,4.31s-6.44,1.37-10.15,1.37ZM100.94,157.65c2.34,0,4.54-.48,6.6-1.45s3.74-2.35,5.04-4.16c1.3-1.81,1.95-4.01,1.95-6.6v-7.02c-.81.31-1.68.61-2.6.92s-1.9.59-2.94.84c-1.04.25-2.11.48-3.21.69-1.1.2-2.25.41-3.47.61-2.39.36-4.34.95-5.84,1.79-1.5.84-2.61,1.86-3.32,3.05-.71,1.2-1.07,2.53-1.07,4.01,0,1.58.38,2.91,1.15,4.01.76,1.1,1.81,1.92,3.13,2.48,1.32.56,2.85.84,4.58.84Z"/>
      <path class="cls-1" d="M191.17,61.92v113.75h-30.69V61.92h30.69Z"/>
    </g>
    <g>
      <path class="cls-1" d="M361.75,177.2c-9.11,0-16.96-1.74-23.55-5.23s-11.64-8.51-15.15-15.08-5.27-14.45-5.27-23.67,1.77-16.5,5.31-23.09c3.54-6.59,8.54-11.72,15-15.38,6.46-3.66,14.1-5.5,22.9-5.5,6.46,0,12.3,1.01,17.52,3.02,5.22,2.01,9.68,4.91,13.4,8.7,3.71,3.79,6.57,8.39,8.55,13.78,1.98,5.39,2.98,11.5,2.98,18.32v7.02h-76.19v-16.8h61.84l-14.35,3.51c0-3.46-.51-6.37-1.53-8.74-1.02-2.37-2.52-4.17-4.5-5.42-1.98-1.25-4.45-1.87-7.41-1.87s-5.42.62-7.41,1.87c-1.98,1.25-3.49,3.05-4.5,5.42-1.02,2.37-1.53,5.28-1.53,8.74v12.21c0,3.77.6,6.88,1.79,9.35,1.2,2.47,2.89,4.3,5.08,5.5,2.19,1.2,4.73,1.79,7.63,1.79,2.09,0,3.98-.29,5.69-.88,1.7-.58,3.17-1.42,4.39-2.52s2.14-2.43,2.75-4.01l27.03,3.97c-1.43,5.09-3.95,9.5-7.56,13.25-3.62,3.74-8.18,6.63-13.7,8.67-5.52,2.03-11.92,3.05-19.2,3.05Z"/>
      <path class="cls-1" d="M437.02,177.5c-4.48,0-8.22-1.48-11.22-4.43-3-2.95-4.5-6.64-4.5-11.07s1.5-8.12,4.5-11.07c3-2.95,6.74-4.43,11.22-4.43s8.22,1.48,11.22,4.43c3,2.95,4.5,6.64,4.5,11.07s-1.5,8.12-4.5,11.07-6.74,4.43-11.22,4.43Z"/>
    </g>
  </g>
</svg>